<svg width="26" height="23" viewBox="0 0 26 23" fill="none" xmlns="http://www.w3.org/2000/svg">
<path d="M13 0C13.4925 0 13.9649 0.173087 14.3132 0.481182C14.6615 0.789278 14.8571 1.20714 14.8571 1.64286V9.85714H24.1429C24.6354 9.85714 25.1078 10.0302 25.4561 10.3383C25.8043 10.6464 26 11.0643 26 11.5C26 11.9357 25.8043 12.3536 25.4561 12.6617C25.1078 12.9698 24.6354 13.1429 24.1429 13.1429H14.8571V21.3571C14.8571 21.7929 14.6615 22.2107 14.3132 22.5188C13.9649 22.8269 13.4925 23 13 23C12.5075 23 12.0351 22.8269 11.6868 22.5188C11.3385 22.2107 11.1429 21.7929 11.1429 21.3571V13.1429H1.85714C1.3646 13.1429 0.892227 12.9698 0.543945 12.6617C0.195663 12.3536 0 11.9357 0 11.5C0 11.0643 0.195663 10.6464 0.543945 10.3383C0.892227 10.0302 1.3646 9.85714 1.85714 9.85714H11.1429V1.64286C11.1429 1.20714 11.3385 0.789278 11.6868 0.481182C12.0351 0.173087 12.5075 0 13 0Z" fill="#2D3436"/>
</svg>
