<svg width="25" height="28" viewBox="0 0 25 28" fill="none" xmlns="http://www.w3.org/2000/svg">
<path d="M13.2428 26.5755L13.229 26.578L13.1402 26.6217L13.1152 26.6267L13.0977 26.6217L13.009 26.578C12.9956 26.5738 12.9856 26.5759 12.979 26.5842L12.974 26.5967L12.9527 27.1318L12.959 27.1568L12.9715 27.1731L13.1015 27.2656L13.1202 27.2706L13.1352 27.2656L13.2653 27.1731L13.2803 27.1531L13.2853 27.1318L13.264 26.598C13.2607 26.5847 13.2536 26.5772 13.2428 26.5755ZM13.574 26.4342L13.5578 26.4367L13.3265 26.553L13.314 26.5655L13.3103 26.5792L13.3328 27.1168L13.339 27.1318L13.349 27.1406L13.6003 27.2568C13.6161 27.261 13.6282 27.2577 13.6366 27.2468L13.6416 27.2293L13.599 26.4617C13.5949 26.4467 13.5865 26.4376 13.574 26.4342ZM12.6802 26.4367C12.6747 26.4334 12.6681 26.4323 12.6618 26.4337C12.6555 26.4351 12.65 26.4389 12.6464 26.4442L12.6389 26.4617L12.5964 27.2293C12.5973 27.2443 12.6044 27.2543 12.6177 27.2593L12.6364 27.2568L12.8877 27.1406L12.9002 27.1306L12.9052 27.1168L12.9265 26.5792L12.9227 26.5642L12.9102 26.5517L12.6802 26.4367Z" fill="white"/>
<path d="M14.3766 24.8628C20.391 23.9577 25.0028 18.7684 25.0028 12.5014C25.0028 5.59688 19.4059 0 12.5014 0C5.59688 0 0 5.59688 0 12.5014C0 18.7684 4.61177 23.9589 10.6262 24.8628V16.2518H8.75099C8.25365 16.2518 7.77668 16.0543 7.42501 15.7026C7.07334 15.3509 6.87577 14.874 6.87577 14.3766C6.87577 13.8793 7.07334 13.4023 7.42501 13.0506C7.77668 12.699 8.25365 12.5014 8.75099 12.5014H10.6262V10.0011C10.6262 8.84067 11.0872 7.72775 11.9077 6.90719C12.7283 6.08662 13.8412 5.62563 15.0017 5.62563H15.6268C16.1241 5.62563 16.6011 5.8232 16.9527 6.17487C17.3044 6.52654 17.502 7.00351 17.502 7.50084C17.502 7.99818 17.3044 8.47515 16.9527 8.82682C16.6011 9.17849 16.1241 9.37606 15.6268 9.37606H15.0017C14.8359 9.37606 14.6769 9.44191 14.5597 9.55913C14.4425 9.67636 14.3766 9.83535 14.3766 10.0011V12.5014H16.2518C16.7492 12.5014 17.2261 12.699 17.5778 13.0506C17.9295 13.4023 18.127 13.8793 18.127 14.3766C18.127 14.874 17.9295 15.3509 17.5778 15.7026C17.2261 16.0543 16.7492 16.2518 16.2518 16.2518H14.3766V24.8628Z" fill="white"/>
</svg>
