<svg width="23" height="24" viewBox="0 0 23 24" fill="none" xmlns="http://www.w3.org/2000/svg">
<path d="M11.5638 7.50098C10.4862 7.50098 9.45282 7.92904 8.69087 8.69099C7.92892 9.45294 7.50085 10.4864 7.50085 11.5639C7.50085 12.6415 7.92892 13.6749 8.69087 14.4369C9.45282 15.1988 10.4862 15.6269 11.5638 15.6269C12.6414 15.6269 13.6748 15.1988 14.4368 14.4369C15.1987 13.6749 15.6268 12.6415 15.6268 11.5639C15.6268 10.4864 15.1987 9.45294 14.4368 8.69099C13.6748 7.92904 12.6414 7.50098 11.5638 7.50098Z" fill="white"/>
<path fill-rule="evenodd" clip-rule="evenodd" d="M4.95307 0.361045C9.29861 -0.120348 13.684 -0.120348 18.0295 0.361045C20.4036 0.626075 22.3175 2.49504 22.5963 4.8778C23.1113 9.28414 23.1113 13.7355 22.5963 18.1418C22.3175 20.5246 20.4036 22.3935 18.0308 22.6598C13.6849 23.1413 9.29902 23.1413 4.95307 22.6598C2.57906 22.3935 0.665092 20.5246 0.38631 18.143C-0.12877 13.7363 -0.12877 9.28455 0.38631 4.8778C0.665092 2.49504 2.57906 0.626075 4.95307 0.361045ZM17.742 4.00896C17.4105 4.00896 17.0925 4.14067 16.858 4.37511C16.6236 4.60956 16.4919 4.92754 16.4919 5.2591C16.4919 5.59065 16.6236 5.90863 16.858 6.14308C17.0925 6.37753 17.4105 6.50924 17.742 6.50924C18.0736 6.50924 18.3916 6.37753 18.626 6.14308C18.8604 5.90863 18.9922 5.59065 18.9922 5.2591C18.9922 4.92754 18.8604 4.60956 18.626 4.37511C18.3916 4.14067 18.0736 4.00896 17.742 4.00896ZM5.55314 11.5098C5.55314 9.9349 6.17877 8.4245 7.29239 7.31088C8.40601 6.19726 9.91641 5.57163 11.4913 5.57163C13.0662 5.57163 14.5766 6.19726 15.6902 7.31088C16.8039 8.4245 17.4295 9.9349 17.4295 11.5098C17.4295 13.0847 16.8039 14.5951 15.6902 15.7087C14.5766 16.8223 13.0662 17.448 11.4913 17.448C9.91641 17.448 8.40601 16.8223 7.29239 15.7087C6.17877 14.5951 5.55314 13.0847 5.55314 11.5098Z" fill="white"/>
</svg>
