<svg width="16" height="23" viewBox="0 0 16 23" fill="none" xmlns="http://www.w3.org/2000/svg">
<path d="M8 9.59999C8.88366 9.59999 9.6 8.88365 9.6 7.99999C9.6 7.11634 8.88366 6.39999 8 6.39999C7.11635 6.39999 6.4 7.11634 6.4 7.99999C6.4 8.88365 7.11635 9.59999 8 9.59999Z" fill="#2D3436"/>
<path d="M8 0C3.589 0 0 3.4325 0 7.65C0 9.6585 0.9155 12.3295 2.721 15.589C4.171 18.206 5.8485 20.5725 6.721 21.75C6.86843 21.9512 7.0612 22.1148 7.28367 22.2276C7.50615 22.3404 7.75207 22.3992 8.0015 22.3992C8.25093 22.3992 8.49685 22.3404 8.71933 22.2276C8.9418 22.1148 9.13457 21.9512 9.282 21.75C10.153 20.5725 11.832 18.206 13.282 15.589C15.0845 12.3305 16 9.6595 16 7.65C16 3.4325 12.411 0 8 0ZM8 11.2C7.3671 11.2 6.74841 11.0123 6.22218 10.6607C5.69594 10.3091 5.28579 9.80931 5.04359 9.22459C4.80138 8.63986 4.73801 7.99645 4.86149 7.37571C4.98496 6.75497 5.28973 6.18479 5.73726 5.73726C6.18479 5.28973 6.75497 4.98496 7.37571 4.86149C7.99645 4.73801 8.63986 4.80138 9.22459 5.04359C9.80931 5.28579 10.3091 5.69594 10.6607 6.22218C11.0123 6.74841 11.2 7.3671 11.2 8C11.1991 8.84841 10.8616 9.6618 10.2617 10.2617C9.6618 10.8616 8.84841 11.1991 8 11.2Z" fill="#2D3436"/>
</svg>
