<svg width="20" height="20" viewBox="0 0 20 20" fill="none" xmlns="http://www.w3.org/2000/svg">
<path fill-rule="evenodd" clip-rule="evenodd" d="M2.35682 0.637709C2.57554 0.419321 2.83817 0.249909 3.12732 0.140699C3.41646 0.0314898 3.72551 -0.0150237 4.03399 0.00424149C4.34247 0.0235066 4.64333 0.10811 4.91664 0.252446C5.18994 0.396782 5.42946 0.597554 5.6193 0.841458L7.86304 3.72394C8.27429 4.25269 8.41929 4.94143 8.25679 5.59143L7.57304 8.32891C7.53794 8.47071 7.53997 8.61916 7.57894 8.75995C7.61792 8.90073 7.69251 9.0291 7.79554 9.13266L10.8668 12.2039C10.9705 12.3071 11.099 12.3818 11.2401 12.4208C11.3811 12.4598 11.5298 12.4617 11.6718 12.4264L14.408 11.7426C14.7288 11.6629 15.0635 11.6569 15.3869 11.7251C15.7104 11.7933 16.0142 11.9339 16.2755 12.1364L19.158 14.3789C20.1942 15.1851 20.2892 16.7164 19.3617 17.6426L18.0692 18.9351C17.1442 19.8601 15.7617 20.2663 14.473 19.8126C11.1739 18.6533 8.17871 16.7648 5.71055 14.2876C3.23353 11.8198 1.34502 8.82512 0.185587 5.52643C-0.26691 4.23894 0.139338 2.8552 1.06433 1.9302L2.35682 0.637709ZM15.6255 1.24896C15.7913 1.24896 15.9502 1.3148 16.0674 1.43201C16.1846 1.54922 16.2505 1.70819 16.2505 1.87395V3.74894H18.1255C18.2912 3.74894 18.4502 3.81479 18.5674 3.932C18.6846 4.04921 18.7505 4.20818 18.7505 4.37394C18.7505 4.5397 18.6846 4.69867 18.5674 4.81587C18.4502 4.93308 18.2912 4.99893 18.1255 4.99893H16.2505V6.87392C16.2505 7.03968 16.1846 7.19865 16.0674 7.31586C15.9502 7.43307 15.7913 7.49892 15.6255 7.49892C15.4597 7.49892 15.3008 7.43307 15.1836 7.31586C15.0663 7.19865 15.0005 7.03968 15.0005 6.87392V4.99893H13.1255C12.9597 4.99893 12.8008 4.93308 12.6836 4.81587C12.5664 4.69867 12.5005 4.5397 12.5005 4.37394C12.5005 4.20818 12.5664 4.04921 12.6836 3.932C12.8008 3.81479 12.9597 3.74894 13.1255 3.74894H15.0005V1.87395C15.0005 1.70819 15.0663 1.54922 15.1836 1.43201C15.3008 1.3148 15.4597 1.24896 15.6255 1.24896Z" fill="white"/>
</svg>
