<svg width="80" height="72" viewBox="0 0 80 72" fill="none" xmlns="http://www.w3.org/2000/svg">
<path d="M34.5579 5.63331C20.8688 14.3986 14.0242 24.9546 14.0242 37.3016C14.0242 41.1429 14.693 43.0635 16.0306 43.0635L17.4076 42.6915C18.4903 42.2742 19.3665 42.0655 20.0365 42.0655C23.959 42.0655 27.2335 43.4913 29.86 46.3427C32.4866 49.1941 33.801 52.7132 33.8034 56.8999C33.801 60.9244 32.3811 64.3403 29.5436 67.1477C26.7061 69.9528 23.2844 71.3553 19.2785 71.3553C13.6869 71.3553 9.07358 69.0568 5.43858 64.4597C1.81286 59.8696 2.61063e-06 54.1007 2.61063e-06 47.1529C-0.00231563 39.2941 1.53931 32.1041 4.62488 25.5829C7.71741 19.064 12.4327 13.1699 18.7708 7.90055C25.1135 2.63583 29.1611 0.00231824 30.9137 0C32.0821 0 33.0418 0.563331 33.7929 1.68999C34.544 2.81434 34.9196 3.79379 34.9196 4.62836L34.5475 5.62984L34.5579 5.63331ZM79.6244 5.63331C65.9353 14.3962 59.0918 24.9535 59.0942 37.305C59.0942 41.1464 59.763 43.067 61.1006 43.067L62.4776 42.6949C63.5602 42.2777 64.4365 42.069 65.1065 42.069C68.9455 42.069 72.1991 43.4947 74.8674 46.3462C77.5404 49.193 78.8757 52.712 78.8733 56.9034C78.871 60.9279 77.4511 64.3438 74.6136 67.1512C71.7761 69.9562 68.3543 71.3588 64.3484 71.3588C58.7568 71.3588 54.1436 69.0602 50.5086 64.4632C46.8828 59.8731 45.07 54.1041 45.07 47.1564C45.0653 39.2141 46.6302 31.9627 49.7644 25.4021C52.894 18.8391 57.6082 12.9659 63.9068 7.78232C70.217 2.59643 74.245 0.00347876 75.9906 0.00347876C77.1613 0.00347876 78.1234 0.566809 78.8768 1.69347C79.6256 2.82013 80 3.80075 80 4.63531L79.6244 5.63331Z" fill="#72157F"/>
</svg>
