<svg width="16" height="15" viewBox="0 0 16 15" fill="none" xmlns="http://www.w3.org/2000/svg">
<path d="M4.00012 4C4.13273 4 4.25991 3.94732 4.35368 3.85355C4.44744 3.75979 4.50012 3.63261 4.50012 3.5V0.5C4.50012 0.367392 4.44744 0.240215 4.35368 0.146447C4.25991 0.0526784 4.13273 0 4.00012 0C3.86751 0 3.74034 0.0526784 3.64657 0.146447C3.5528 0.240215 3.50012 0.367392 3.50012 0.5V3.5C3.50012 3.63261 3.5528 3.75979 3.64657 3.85355C3.74034 3.94732 3.86751 4 4.00012 4Z" fill="#74057D"/>
<path d="M12.0001 4C12.1327 4 12.2599 3.94732 12.3537 3.85355C12.4474 3.75979 12.5001 3.63261 12.5001 3.5V0.5C12.5001 0.367392 12.4474 0.240215 12.3537 0.146447C12.2599 0.0526784 12.1327 0 12.0001 0C11.8675 0 11.7403 0.0526784 11.6466 0.146447C11.5528 0.240215 11.5001 0.367392 11.5001 0.5V3.5C11.5001 3.63261 11.5528 3.75979 11.6466 3.85355C11.7403 3.94732 11.8675 4 12.0001 4Z" fill="#74057D"/>
<path d="M15.1251 2.00006H13.1251V3.50006C13.1251 3.7918 13.0092 4.07158 12.8029 4.27787C12.5967 4.48416 12.3169 4.60006 12.0251 4.60006C11.7334 4.60006 11.4536 4.48416 11.2473 4.27787C11.041 4.07158 10.9251 3.7918 10.9251 3.50006V2.00006H5.10013V3.50006C5.10013 3.7918 4.98424 4.07158 4.77795 4.27787C4.57166 4.48416 4.29187 4.60006 4.00013 4.60006C3.70839 4.60006 3.4286 4.48416 3.22231 4.27787C3.01602 4.07158 2.90013 3.7918 2.90013 3.50006V2.00006H0.900128C0.78114 1.9987 0.663089 2.02122 0.552956 2.06629C0.442823 2.11135 0.342845 2.17804 0.258935 2.26242C0.175026 2.3468 0.108889 2.44714 0.0644353 2.55752C0.019982 2.6679 -0.00188473 2.78608 0.000128526 2.90506V14.0951C-0.00185798 14.2119 0.0192006 14.3281 0.0621014 14.4368C0.105002 14.5455 0.168905 14.6448 0.250159 14.7288C0.331414 14.8129 0.428428 14.8801 0.535662 14.9266C0.642895 14.9731 0.758247 14.9981 0.875129 15.0001H15.1251C15.242 14.9981 15.3574 14.9731 15.4646 14.9266C15.5718 14.8801 15.6688 14.8129 15.7501 14.7288C15.8314 14.6448 15.8953 14.5455 15.9382 14.4368C15.9811 14.3281 16.0021 14.2119 16.0001 14.0951V2.90506C16.0021 2.78818 15.9811 2.67205 15.9382 2.56331C15.8953 2.45457 15.8314 2.35534 15.7501 2.2713C15.6688 2.18726 15.5718 2.12005 15.4646 2.07351C15.3574 2.02697 15.242 2.00201 15.1251 2.00006ZM11.9701 7.29006L7.13513 12.1251L4.50013 9.47006C4.38339 9.34166 4.32015 9.17349 4.32337 8.99999C4.32659 8.82649 4.39602 8.66078 4.51744 8.53681C4.63886 8.41283 4.80309 8.33996 4.97648 8.33313C5.14988 8.3263 5.31933 8.38602 5.45013 8.50006L7.14013 10.1901L11.0001 6.33006C11.0635 6.2667 11.1387 6.21643 11.2215 6.18214C11.3043 6.14785 11.393 6.1302 11.4826 6.1302C11.5722 6.1302 11.661 6.14785 11.7438 6.18214C11.8265 6.21643 11.9018 6.2667 11.9651 6.33006C12.0285 6.39342 12.0788 6.46864 12.113 6.55143C12.1473 6.63422 12.165 6.72295 12.165 6.81256C12.165 6.90217 12.1473 6.9909 12.113 7.07369C12.0788 7.15647 12.0285 7.2317 11.9651 7.29506L11.9701 7.29006Z" fill="#74057D"/>
</svg>
