<svg width="22" height="19" viewBox="0 0 22 19" fill="none" xmlns="http://www.w3.org/2000/svg">
<path d="M12.289 4.05186L17.228 0.209861C17.4204 0.06061 17.6607 -0.013309 17.9037 0.00197221C18.1467 0.0172534 18.3758 0.120685 18.548 0.292861L21.543 3.28686C21.715 3.45918 21.8183 3.68835 21.8334 3.93137C21.8485 4.17439 21.7744 4.41458 21.625 4.60686L17.785 9.54586C18.0558 10.6503 18.072 11.8018 17.8325 12.9134C17.5931 14.025 17.1041 15.0676 16.4027 15.9626C15.7012 16.8576 14.8056 17.5814 13.7833 18.0795C12.7611 18.5776 11.6391 18.8369 10.502 18.8379C7 18.8379 2.5 17.3359 0 15.8359C3.98 12.8359 3.047 11.0259 3.5 9.33586C4.558 5.38586 8.342 3.07786 12.289 4.05186ZM15.7 5.93086C15.7653 5.99419 15.83 6.05853 15.894 6.12386L17.03 7.25886L19.505 4.07686L17.759 2.33086L14.577 4.80586L15.7 5.93086Z" fill="#74057D"/>
</svg>
