<svg width="25" height="25" viewBox="0 0 25 25" fill="none" xmlns="http://www.w3.org/2000/svg">
<path fill-rule="evenodd" clip-rule="evenodd" d="M17.1894 24.3777C19.0959 24.3777 20.9243 23.6204 22.2723 22.2723C23.6204 20.9243 24.3777 19.0959 24.3777 17.1894V7.18831C24.3777 5.28185 23.6204 3.45348 22.2723 2.10541C20.9243 0.757337 19.0959 0 17.1894 0H7.18831C5.28185 0 3.45348 0.757337 2.10541 2.10541C0.757337 3.45348 0 5.28185 0 7.18831V17.1894C0 19.0959 0.757337 20.9243 2.10541 22.2723C3.45348 23.6204 5.28185 24.3777 7.18831 24.3777H17.1894ZM14.3279 4.39174C14.2571 4.18102 14.1138 4.00229 13.9235 3.88743C13.7332 3.77257 13.5083 3.72905 13.2889 3.76464C13.0695 3.80023 12.8698 3.91262 12.7256 4.08175C12.5814 4.25088 12.5019 4.46575 12.5014 4.68803V15.9393C12.5014 16.4956 12.3364 17.0394 12.0274 17.502C11.7183 17.9646 11.279 18.3251 10.765 18.538C10.251 18.7509 9.68547 18.8066 9.13984 18.6981C8.5942 18.5895 8.09301 18.3216 7.69963 17.9283C7.30625 17.5349 7.03835 17.0337 6.92982 16.488C6.82129 15.9424 6.87699 15.3769 7.08989 14.8629C7.30278 14.3489 7.66331 13.9096 8.12587 13.6005C8.58844 13.2914 9.13227 13.1265 9.68859 13.1265C9.93726 13.1265 10.1757 13.0277 10.3516 12.8519C10.5274 12.676 10.6262 12.4375 10.6262 12.1889C10.6262 11.9402 10.5274 11.7017 10.3516 11.5259C10.1757 11.3501 9.93726 11.2513 9.68859 11.2513C8.76139 11.2513 7.855 11.5262 7.08406 12.0413C6.31312 12.5565 5.71224 13.2886 5.35742 14.1453C5.00259 15.0019 4.90975 15.9445 5.09064 16.8539C5.27153 17.7633 5.71802 18.5986 6.37365 19.2542C7.02929 19.9099 7.86461 20.3564 8.774 20.5372C9.68339 20.7181 10.626 20.6253 11.4826 20.2705C12.3392 19.9156 13.0714 19.3148 13.5865 18.5438C14.1017 17.7729 14.3766 16.8665 14.3766 15.9393V7.76087C15.3355 8.65097 16.6856 9.37606 18.4396 9.37606C18.6882 9.37606 18.9267 9.27727 19.1026 9.10144C19.2784 8.9256 19.3772 8.68712 19.3772 8.43845C19.3772 8.18978 19.2784 7.9513 19.1026 7.77546C18.9267 7.59963 18.6882 7.50084 18.4396 7.50084C17.2244 7.50084 16.3006 7.00079 15.6155 6.35196C14.9154 5.68689 14.4929 4.88555 14.3279 4.39174Z" fill="white"/>
</svg>
