<svg width="25" height="25" viewBox="0 0 25 25" fill="none" xmlns="http://www.w3.org/2000/svg">
<mask id="mask0_4164_66" style="mask-type:luminance" maskUnits="userSpaceOnUse" x="0" y="0" width="25" height="25">
<path d="M12.4492 0.625H12.4512C14.0034 0.620363 15.5416 0.922853 16.9766 1.51465C18.4115 2.10649 19.7148 2.97671 20.8125 4.07422L20.8154 4.07617C21.9143 5.1642 22.7863 6.45972 23.3799 7.8877C23.9734 9.31577 24.2764 10.848 24.2725 12.3945V12.3965C24.2724 18.8815 18.9651 24.1629 12.4492 24.1631H12.4443C10.4702 24.1626 8.52692 23.6697 6.79102 22.7295L6.57422 22.6113L6.33496 22.6738L0.78418 24.125L2.26562 18.749L2.33496 18.4971L2.2041 18.2705C1.16914 16.4819 0.625074 14.4546 0.625 12.3906C0.625 5.90681 5.93317 0.625 12.4492 0.625ZM13.9648 14.959V14.958L13.9561 14.9541L13.7207 14.8486L13.7129 14.8457L13.4131 14.7139C12.7213 14.3931 12.0808 13.9705 11.5137 13.459L11.5098 13.4551L11.1904 13.1533C10.5481 12.506 10.0906 11.8013 9.89648 11.4785C10.009 11.3643 10.1307 11.2187 10.2305 11.0967L10.2295 11.0957L10.4033 10.8906L10.4023 10.8896C10.5988 10.6631 10.689 10.4747 10.7744 10.2988L10.7754 10.2979L10.8096 10.2246C11.0321 9.76475 10.9077 9.36319 10.7793 9.11035C10.7758 9.10265 10.7673 9.08277 10.752 9.04688C10.7326 9.00155 10.7078 8.94144 10.6777 8.86914C10.6175 8.724 10.5401 8.53622 10.4541 8.32715C10.2366 7.79814 9.96313 7.12874 9.79785 6.76074L9.79688 6.75977C9.64582 6.42493 9.44973 6.1608 9.17383 6.00098C8.90257 5.8439 8.63666 5.84186 8.52344 5.83887H8.52441C8.32678 5.83219 8.09796 5.83203 7.88477 5.83203H7.86816C7.61962 5.83846 7.3748 5.89599 7.14941 6.00098C6.92965 6.10337 6.7328 6.24895 6.57031 6.42871L6.5127 6.49023C6.14533 6.87825 5.27441 7.8038 5.27441 9.53516C5.27448 10.4526 5.60272 11.32 5.92773 11.9619C6.23802 12.5747 6.57032 13.0294 6.69141 13.1914L6.69531 13.1973L6.7041 13.21L6.77051 13.3057C7.18424 13.9192 9.27488 17.0129 12.4922 18.2783C13.7418 18.7704 14.5756 19.0084 15.1846 19.1104C15.8163 19.216 16.1921 19.1724 16.4912 19.1367L16.4902 19.1357L16.6592 19.1162L16.6582 19.1152C17.0975 19.0701 17.6657 18.8201 18.1328 18.5195C18.5971 18.2208 19.1415 17.7594 19.3506 17.1846L19.3525 17.1787C19.5027 16.7523 19.5808 16.3523 19.6084 16.0293C19.6221 15.8686 19.6236 15.7172 19.6133 15.585C19.6055 15.4853 19.5851 15.2937 19.4873 15.127L19.4834 15.1191L19.3945 14.9971C19.3004 14.8876 19.1939 14.8143 19.1143 14.7656C19.0088 14.7012 18.8852 14.6426 18.7822 14.5938H18.7832L18.6045 14.5068C18.4406 14.4259 17.9647 14.1919 17.4912 13.9639C17.0341 13.7437 16.5295 13.5049 16.3467 13.4365L16.3447 13.4355L16.2217 13.3916C16.0779 13.3443 15.8761 13.2941 15.6611 13.3193C15.3097 13.3606 15.0604 13.5721 14.8887 13.8301C14.713 14.0885 14.2061 14.6833 13.9688 14.96C13.9676 14.9594 13.966 14.9596 13.9648 14.959Z" fill="white" stroke="white" stroke-width="1.25014"/>
</mask>
<g mask="url(#mask0_4164_66)">
<path fill-rule="evenodd" clip-rule="evenodd" d="M0.125014 24.1665C0.101457 24.2513 0.100673 24.3407 0.12274 24.4259C0.144807 24.511 0.188944 24.5889 0.250698 24.6515C0.312452 24.7141 0.389636 24.7594 0.474463 24.7827C0.559289 24.806 0.648755 24.8064 0.733832 24.7841L6.49323 23.2789C8.32054 24.2687 10.3658 24.7873 12.4439 24.7878H12.4489C19.3072 24.7878 24.8978 19.2297 24.8978 12.3965C24.902 10.767 24.5821 9.15289 23.9567 7.64818C23.3313 6.14347 22.4129 4.77817 21.2549 3.63172C20.0989 2.47585 18.7257 1.55995 17.2145 0.936694C15.7032 0.313436 14.0836 -0.00488002 12.4489 5.655e-05C5.59063 5.655e-05 0 5.55818 0 12.3902C0 14.5642 0.572564 16.6994 1.66269 18.5834L0.125014 24.1665ZM8.50346 6.46328C8.73223 6.46954 8.98601 6.48204 9.22729 7.0171C9.38731 7.37339 9.65609 8.02971 9.87611 8.56477C10.0474 8.98107 10.1874 9.32361 10.2224 9.39361C10.3037 9.55363 10.3524 9.7374 10.2474 9.95368L10.2124 10.0262C10.1274 10.2012 10.0674 10.3262 9.92487 10.4887L9.7461 10.7013C9.63984 10.8313 9.53357 10.9588 9.44356 11.0488C9.28229 11.2088 9.11603 11.3813 9.30105 11.7014C9.48607 12.0214 10.1361 13.074 11.095 13.9229C11.7963 14.5554 12.601 15.0628 13.474 15.423C13.5615 15.4605 13.6324 15.4922 13.6865 15.5181C14.0078 15.6781 14.1991 15.6531 14.3841 15.438C14.5704 15.2218 15.188 14.5017 15.4055 14.1817C15.6155 13.8616 15.8305 13.9116 16.1281 14.0216C16.4256 14.1329 18.0083 14.9092 18.3296 15.068L18.5083 15.1555C18.7321 15.2618 18.8834 15.3355 18.9484 15.443C19.0284 15.5793 19.0284 16.2181 18.7634 16.9707C18.4908 17.7208 17.1794 18.4409 16.5856 18.4959L16.4168 18.5159C15.8718 18.5809 15.1817 18.6659 12.7214 17.6971C9.68859 16.5044 7.68712 13.5466 7.28332 12.9478L7.21706 12.8528L7.21081 12.8428C7.02579 12.5965 5.89941 11.0901 5.89941 9.53488C5.89941 8.04721 6.63325 7.27213 6.96703 6.91959L7.02579 6.85708C7.13383 6.73503 7.26584 6.63653 7.41359 6.5677C7.56135 6.49888 7.72169 6.46121 7.88464 6.45703C8.10091 6.45703 8.31844 6.45703 8.50346 6.46328Z" fill="white" stroke="white" stroke-width="2.50028" stroke-linejoin="round"/>
</g>
</svg>
